<?xml version="1.0" encoding="UTF-8" standalone="no"?>
<!-- Created with Inkscape (http://www.inkscape.org/) -->

<svg
   width="122.89872mm"
   height="145.77164mm"
   viewBox="0 0 122.89872 145.77164"
   version="1.1"
   id="svg1"
   xml:space="preserve"
   xmlns="http://www.w3.org/2000/svg"
   xmlns:svg="http://www.w3.org/2000/svg"><defs
     id="defs1" /><g
     id="layer1"
     transform="translate(-43.046381,-57.968365)"><path
       style="fill:#e3e2db;fill-opacity:1;stroke-width:1.50122"
       d="m 73.885291,202.60289 c -4.47121,-1.78475 -6.163042,-2.64269 -9.53275,-4.83406 l -3.177586,-2.06645 -3.574783,-3.62722 -3.574783,-3.62722 -2.062327,-3.01067 c -3.602789,-5.25953 -5.78427,-10.12559 -7.553589,-16.84923 l -1.045222,-3.97199 -0.158933,-16.48371 -0.158934,-16.48372 4.099308,-2.22897 c 14.640289,-7.96057 22.679099,-12.35522 24.753609,-13.5323 l 2.38319,-1.35221 0.10195,-28.283401 0.10195,-28.28338 h 2.57914 2.57914 v 55.229501 55.22949 l -2.48249,-0.1183 -2.48249,-0.11829 -0.10242,-23.73258 c -0.0563,-13.05293 -0.16546,-23.73259 -0.24251,-23.73259 -0.077,0 -5.929337,3.17362 -13.005108,7.05247 l -12.865039,7.05247 v 13.70114 13.70112 l 0.518019,2.5818 c 1.349547,6.7261 4.059855,13.00863 7.936875,18.39778 l 2.269456,3.15459 2.954915,2.76123 c 4.093268,3.82496 10.093182,7.55075 14.208852,8.82333 l 0.87864,0.27168 3.21769,-1.41474 c 1.76974,-0.77811 4.50229,-2.24884 6.07233,-3.26829 l 2.85463,-1.85354 2.89351,-2.79221 c 3.727155,-3.59666 5.571545,-6.0126 7.994559,-10.47201 l 1.96219,-3.61125 1.22427,-3.56569 1.22428,-3.56567 0.59011,-3.91509 0.59012,-3.91511 0.003,-10.93289 0.003,-10.93288 -3.00383,-2.96906 c -5.269164,-5.20809 -8.389799,-10.38599 -10.167939,-16.87098 l -0.87128,-3.17757 -0.0105,-5.56078 -0.0105,-5.56078 0.87786,-3.09357 c 1.12311,-3.957811 2.723825,-7.476481 4.851395,-10.664251 l 1.68678,-2.52729 14.537064,-14.59704 c 7.9954,-8.02836 14.72618,-14.59703 14.95731,-14.59703 0.23113,0 6.85908,6.4793 14.72877,14.39844 l 14.30853,14.39842 1.42581,1.98684 c 3.31435,4.6184 5.53507,10.42638 6.31654,16.520041 l 0.45805,3.57164 -0.4456,3.9188 -0.44563,3.91881 -1.15151,3.42676 -1.15152,3.42676 -1.9325,3.26249 -1.93249,3.26247 -13.80263,13.92387 -13.80265,13.92386 v 22.71766 22.71765 h -2.58179 -2.58178 v -34.38211 -34.38211 l -10.52575,-10.45091 c -11.86609,-11.78172 -11.08106,-10.63565 -8.81109,-12.86344 l 1.71465,-1.68281 8.5132,8.54216 c 4.68226,4.69817 8.64724,8.54616 8.81109,8.55107 l 0.2979,0.009 v -6.84803 -6.84803 l -7.84019,-7.84756 -7.84019,-7.847551 1.88235,-1.88233 1.88234,-1.88235 5.95785,5.94791 5.95784,5.947901 V 93.810529 81.800249 h 2.58178 2.58179 v 12.01028 12.010271 l 5.95407,-5.944131 5.95407,-5.94415 1.86899,1.89573 1.869,1.89571 -7.83281,7.840161 -7.83281,7.84017 0.10899,6.92991 0.10899,6.92992 8.66892,-8.68479 8.66893,-8.6848 1.75752,1.72489 c 0.96664,0.94868 1.75753,1.83087 1.75753,1.96041 0,0.12956 -4.73514,4.96298 -10.52255,10.74095 l -10.52254,10.50542 -0.003,7.64606 -0.003,7.64607 h 0.31944 c 0.17571,0 5.32853,-5.04938 11.45075,-11.22085 l 11.1313,-11.22085 1.23782,-1.82729 c 1.75785,-2.59501 3.18934,-5.88313 4.08386,-9.38065 l 0.7723,-3.01966 -0.006,-4.00775 -0.006,-4.00774 -0.59293,-2.51514 c -0.79403,-3.368161 -1.9592,-6.055691 -4.07571,-9.400801 l -1.7592,-2.7804 -12.36644,-12.41244 c -6.80155,-6.82683 -12.55069,-12.41244 -12.77587,-12.41244 -0.51024,0 -24.63505,24.23872 -26.28954,26.41369 -0.66474,0.87383 -1.76265,2.69042 -2.439804,4.03688 l -1.2312,2.44811 -0.86512,3.311271 -0.86513,3.31127 8.6e-4,3.97198 8.4e-4,3.97198 0.64647,2.67313 c 1.4343,5.93071 3.789104,9.81111 9.498264,15.65187 l 3.93515,4.02587 -0.16153,14.44384 -0.16155,14.44385 -1.04533,3.97199 c -4.24614,16.13437 -14.153594,27.85267 -28.371189,33.5568 -4.68792,1.88079 -4.00123,1.83863 -7.4599,0.45805 z"
       id="path226495" /></g></svg>
