<?xml version="1.0" encoding="UTF-8" standalone="no"?>
<!-- Created with Inkscape (http://www.inkscape.org/) -->

<svg
   width="83.436333mm"
   height="93.585205mm"
   viewBox="0 0 83.436333 93.585205"
   version="1.1"
   id="svg1"
   xml:space="preserve"
   xmlns="http://www.w3.org/2000/svg"
   xmlns:svg="http://www.w3.org/2000/svg"><defs
     id="defs1" /><g
     id="layer1"
     transform="translate(-15.456746,-14.215671)"><path
       style="fill:#e3e2db;fill-opacity:1;stroke-width:0.4232"
       d="m 41.470155,107.54892 c -0.209052,-0.94579 -2.286147,-10.740812 -3.637388,-17.152941 -0.211254,-1.002475 -0.201523,-0.990798 -1.68862,-2.026427 l -0.970804,-0.676074 -0.02871,-8.255848 -0.02871,-8.255852 4.549504,0.0069 c 2.502227,0.0038 4.563834,-0.0078 4.581346,-0.02582 0.02655,-0.02725 -2.158561,-3.860896 -3.752244,-6.583055 -0.234354,-0.400295 -0.709251,-1.215031 -1.055325,-1.810519 -0.617416,-1.062383 -0.639188,-1.084918 -1.159866,-1.200503 -1.116975,-0.247948 -5.760229,-1.261667 -7.472874,-1.631485 -0.98535,-0.212767 -2.95045,-0.642759 -4.36689,-0.955533 -4.191683,-0.925597 -3.763304,-0.865892 -3.966989,-0.552877 -0.41777,0.642007 -0.980384,1.137324 -1.6606,1.46196 -0.679583,0.324336 -0.795415,0.344844 -1.702797,0.301462 -0.773327,-0.03694 -1.103615,-0.110105 -1.605521,-0.355667 -1.052314,-0.514848 -1.754552,-1.49301 -1.989614,-2.771369 -0.297321,-1.616943 0.584197,-3.270543 2.135747,-4.006356 0.524581,-0.248782 0.765183,-0.291551 1.623588,-0.288626 0.931416,0.003 1.062022,0.03259 1.724375,0.388467 1.02531,0.550879 1.681287,1.452288 1.95562,2.687312 0.06026,0.271304 0.192553,0.308406 4.293541,1.204205 6.277655,1.37126 10.719768,2.337196 11.76807,2.558961 0.511714,0.108254 0.999047,0.250585 1.082962,0.316295 0.08391,0.06571 0.791104,1.227989 1.571533,2.582846 0.780429,1.354856 1.758915,3.042825 2.174414,3.751046 0.415498,0.70822 1.235287,2.114389 1.821753,3.12482 1.011847,1.743328 1.084234,1.837681 1.417445,1.847533 0.270595,0.008 0.351142,-0.03707 0.351136,-0.196505 -1.2e-5,-0.298876 -2.228953,-16.671669 -2.276039,-16.718753 -0.03021,-0.03022 -12.079396,-6.001879 -19.036391,-9.434577 l -4.460705,-2.200993 -0.714616,0.359664 c -0.924926,0.465515 -1.706445,0.564713 -2.615084,0.331928 -2.894216,-0.741462 -3.853689,-4.358346 -1.692445,-6.379936 0.62714,-0.586617 0.975953,-0.775775 1.778537,-0.964487 1.661657,-0.390707 3.444336,0.485181 4.22183,2.074323 0.245916,0.502633 0.312094,0.799691 0.319626,1.434726 0.0052,0.440466 -0.02869,0.93718 -0.07537,1.103805 -0.08363,0.29854 -0.0575,0.316348 1.791545,1.221174 2.75101,1.346198 22.34555,11.069677 22.383158,11.107286 0.01763,0.01765 0.284345,1.893974 0.592704,4.169657 0.308359,2.275679 0.68697,5.069765 0.841357,6.209077 0.154388,1.139309 0.454085,3.348084 0.665995,4.908387 0.211909,1.560303 0.411678,2.863304 0.44393,2.895556 0.05092,0.05092 0.973005,0.07763 1.555011,0.04504 0.185341,-0.01037 0.19595,-0.665405 0.19595,-12.098652 V 47.010819 L 48.581937,44.575818 C 47.057724,43.236569 45.004446,41.430434 44.019097,40.562188 42.416099,39.1497 37.896241,35.176507 33.339314,31.174103 32.438915,30.383272 31.210582,29.306977 30.609685,28.782338 l -1.09254,-0.95389 -0.410578,0.194832 c -0.568912,0.269966 -1.573826,0.36854 -2.293038,0.224929 -1.176106,-0.234844 -2.106409,-0.999246 -2.654907,-2.181456 -0.412342,-0.888749 -0.410013,-2.149655 0.0056,-3.04574 0.364248,-0.785289 1.076024,-1.493974 1.883414,-1.875236 0.882189,-0.416582 2.249552,-0.417398 3.135203,-0.0019 0.796707,0.373799 1.523469,1.1005 1.885798,1.885644 0.360866,0.781973 0.406773,2.037994 0.101696,2.782422 -0.107772,0.26298 -0.19595,0.495575 -0.19595,0.516878 0,0.0213 0.718018,0.666456 1.595595,1.433674 0.877577,0.767217 3.560695,3.122099 5.962484,5.23307 2.401789,2.11097 5.752537,5.053513 7.446107,6.538983 1.693569,1.485471 3.141955,2.761367 3.218635,2.835325 0.07668,0.07396 1.046634,0.924332 2.155452,1.889722 l 2.016034,1.755249 v 12.58564 12.585649 h 1.399644 1.399644 V 46.442073 21.697978 l -0.643835,-0.327714 c -0.820344,-0.417555 -1.388962,-1.009502 -1.785694,-1.858955 -0.406565,-0.870508 -0.430412,-2.158459 -0.05548,-2.996241 0.536463,-1.198712 1.8404,-2.146495 3.139974,-2.282327 1.513014,-0.158141 3.168325,0.798717 3.804745,2.19935 0.423208,0.931399 0.412671,2.161381 -0.02666,3.112863 -0.38019,0.82338 -1.161662,1.588624 -1.916827,1.877024 l -0.500726,0.191228 V 46.39969 c 0,13.632562 0.03779,24.787606 0.08398,24.788978 0.04619,0.0013 0.650881,0.01396 1.34376,0.02797 l 1.25978,0.02548 -1.01e-4,-12.607774 -1.02e-4,-12.607772 2.043482,-1.78936 c 1.123912,-0.98415 3.353548,-2.940153 4.95474,-4.346671 1.601192,-1.406519 3.234823,-2.838597 3.630286,-3.182396 0.395467,-0.343798 0.800321,-0.700668 0.89968,-0.793045 0.09936,-0.09238 1.186634,-1.048538 2.416177,-2.124804 1.229538,-1.076266 2.260715,-1.983722 2.291507,-2.016569 0.03081,-0.03285 0.862184,-0.762554 1.847532,-1.62157 0.985348,-0.859016 1.816736,-1.589143 1.847528,-1.622505 0.03081,-0.03336 0.282732,-0.25786 0.559859,-0.498884 0.277128,-0.241024 0.721712,-0.635966 0.98796,-0.877651 l 0.484085,-0.439426 -0.189758,-0.466007 c -0.300311,-0.737511 -0.246743,-1.930018 0.123794,-2.75568 0.35247,-0.785413 1.14208,-1.58175 1.928744,-1.945172 0.66546,-0.307432 2.304825,-0.332031 2.946277,-0.04421 0.761717,0.341784 1.491207,1.02355 1.894834,1.770879 0.360358,0.667207 0.386918,0.786134 0.385132,1.724376 -0.0021,1.20962 -0.221523,1.784296 -0.996825,2.613159 -1.036424,1.108018 -2.684494,1.48599 -4.082504,0.93629 -0.332872,-0.130886 -0.663975,-0.202055 -0.735792,-0.158153 -0.07181,0.0439 -0.706434,0.590667 -1.410265,1.215034 -1.66659,1.478425 -4.239592,3.740327 -5.140939,4.51935 -0.3919,0.338713 -0.943121,0.822521 -1.224938,1.075128 -0.281817,0.252607 -1.798209,1.587868 -3.36976,2.967246 -1.571548,1.379378 -4.481408,3.936185 -6.466354,5.68179 l -3.608994,3.173832 v 12.082328 12.082291 l 0.643839,0.0124 c 0.699163,0.01346 1.182275,-0.01367 1.240715,-0.06964 0.02036,-0.01951 0.209246,-1.312075 0.419742,-2.872378 1.214375,-9.001551 2.073986,-15.258567 2.09978,-15.284061 0.06596,-0.0652 17.161667,-8.54626 21.775884,-10.802866 2.343636,-1.146168 2.492378,-1.237033 2.407387,-1.470644 -0.04982,-0.136947 -0.09034,-0.626898 -0.09005,-1.088781 4.23e-4,-0.698124 0.05506,-0.951001 0.323718,-1.499077 0.79495,-1.621729 2.536598,-2.480421 4.225473,-2.083299 0.803842,0.189016 1.152411,0.377969 1.779757,0.96478 1.139994,1.066332 1.505672,2.832158 0.87075,4.204809 -0.669688,1.447825 -1.908071,2.259784 -3.462347,2.270127 -0.764895,0.0051 -0.934019,-0.03593 -1.638396,-0.397172 l -0.785458,-0.402848 -4.911938,2.431205 c -2.701566,1.337162 -7.983007,3.951274 -11.736528,5.809137 -3.753526,1.857858 -6.835696,3.389028 -6.849264,3.402596 -0.05927,0.05928 -2.282078,16.360265 -2.282087,16.735749 0,0.08338 0.147722,0.139965 0.365382,0.139965 0.354244,0 0.397575,-0.05549 1.420842,-1.819538 0.580498,-1.000744 1.64019,-2.827282 2.354868,-4.05897 0.714674,-1.231684 1.700285,-2.938092 2.19024,-3.792016 0.489955,-0.853919 0.991603,-1.596342 1.114771,-1.649826 0.123168,-0.05348 1.156109,-0.298436 2.295417,-0.54434 1.139312,-0.245905 3.784639,-0.821752 5.878508,-1.279667 2.093864,-0.45791 4.930181,-1.076294 6.302922,-1.374188 2.382219,-0.516959 2.498671,-0.554374 2.556895,-0.821557 0.315279,-1.446742 1.267567,-2.518946 2.642966,-2.975781 0.793947,-0.263704 1.975643,-0.17515 2.719818,0.203821 0.703282,0.35815 1.517949,1.21837 1.837681,1.94044 0.283078,0.639294 0.350358,1.856162 0.142296,2.573705 -0.311187,1.073205 -1.310611,2.094195 -2.415199,2.467321 -0.849506,0.286959 -2.200346,0.180177 -2.961517,-0.234105 -0.568683,-0.309516 -1.110039,-0.817495 -1.484571,-1.393038 l -0.176292,-0.270902 -5.814186,1.263127 c -8.930153,1.94007 -10.277802,2.243491 -10.361989,2.332985 -0.132656,0.141014 -5.362412,9.194576 -5.395929,9.341232 -0.01198,0.05232 2.031539,0.0932 4.541104,0.09085 l 4.56284,-0.0043 v 8.226829 8.226829 l -1.229712,0.873218 c -0.676345,0.480272 -1.254457,0.9488 -1.284699,1.041176 -0.05121,0.156415 -1.464147,6.810647 -2.199253,10.357368 -0.1787,0.862183 -0.399496,1.895113 -0.490658,2.295413 -0.09117,0.4003 -0.370955,1.71037 -0.621756,2.91127 -0.250805,1.20089 -0.484034,2.29681 -0.518292,2.43537 l -0.06226,0.25197 H 57.176665 41.525841 Z m 29.71333,-1.98972 c 0.04888,-0.0911 0.295457,-1.17347 0.547955,-2.40516 0.524683,-2.55943 1.896772,-9.069178 2.643283,-12.540807 0.278097,-1.293272 0.540472,-2.386126 0.583055,-2.428568 0.04259,-0.04244 0.48739,-0.372797 0.98845,-0.734129 l 0.911021,-0.65697 -1.679979,-1.5053 c -0.923988,-0.827914 -1.818543,-1.631265 -1.987899,-1.785229 -0.169356,-0.15396 -1.687648,-1.518863 -3.373988,-3.033113 -4.517147,-4.05619 -4.436553,-3.968896 -1.834384,-1.98693 0.923769,0.70359 2.737708,2.080271 4.030976,3.059288 1.293272,0.979017 2.970234,2.248983 3.726585,2.822152 0.756346,0.573165 1.398784,1.042121 1.427633,1.042121 0.02886,0 0.05246,-2.720907 0.05246,-6.046464 V 73.313628 H 57.175751 37.132845 v 6.60904 6.609039 l 0.740011,0.529147 c 0.929653,0.664749 4.082344,3.071794 9.602909,7.331707 0.897644,0.692664 2.257411,1.738068 3.021704,2.32312 1.409863,1.079223 1.720961,1.38652 0.838347,0.828109 -0.492769,-0.311767 -1.730792,-1.040902 -7.484679,-4.408102 -1.755154,-1.027126 -3.302269,-1.937377 -3.438033,-2.022783 -0.135763,-0.08541 -0.268345,-0.131996 -0.294625,-0.103536 -0.02628,0.02848 0.347763,1.916074 0.831208,4.194694 0.483444,2.278621 1.160107,5.478207 1.503694,7.110187 0.343587,1.63199 0.65081,3.05523 0.682719,3.16276 0.05473,0.18443 0.829602,0.19711 13.683148,0.22394 7.493818,0.0156 13.771432,0.0274 13.950247,0.0262 0.178818,-10e-4 0.365115,-0.0768 0.41399,-0.16795 z M 19.934051,58.041395 c 0.580752,-0.242654 0.987175,-0.855997 0.996958,-1.504538 0.0109,-0.722351 -0.295317,-1.236521 -0.93237,-1.565555 -1.219255,-0.629737 -2.567108,0.288999 -2.43537,1.660022 0.116886,1.216457 1.238115,1.883331 2.370782,1.410071 z m 76.246607,-0.215138 c 0.462426,-0.352707 0.680208,-0.924107 0.605344,-1.588272 -0.06822,-0.605294 -0.354082,-0.999978 -0.931449,-1.286061 -0.584638,-0.28968 -0.893087,-0.28428 -1.50596,0.02636 -1.193363,0.60488 -1.249154,2.198535 -0.104213,2.976841 0.524251,0.356376 1.374256,0.299803 1.936278,-0.128873 z M 19.978768,41.244425 c 1.202472,-0.625646 1.291815,-2.289761 0.160763,-2.994386 -0.691347,-0.430696 -1.640013,-0.262994 -2.258756,0.399297 -0.385387,0.41251 -0.451135,1.424044 -0.126203,1.941637 0.459704,0.732278 1.490594,1.035145 2.224196,0.653452 z m 76.024133,-0.06602 c 1.029759,-0.627853 1.086286,-2.208767 0.102038,-2.853672 -0.766567,-0.502273 -1.57451,-0.426216 -2.187171,0.205893 -0.844736,0.871544 -0.620639,2.128812 0.488516,2.740752 0.365356,0.201574 1.192521,0.153406 1.596617,-0.09297 z M 86.937743,26.576154 c 0.455194,-0.236837 0.769237,-0.6292 0.924179,-1.154662 0.308356,-1.045738 -0.53916,-2.090231 -1.696044,-2.090231 -1.638815,0 -2.288832,2.184886 -0.925601,3.111224 0.48927,0.332468 1.206788,0.388969 1.697466,0.133669 z M 28.400812,26.078259 c 0.638629,-0.339368 0.921759,-0.855092 0.870695,-1.585979 -0.05316,-0.760905 -0.389272,-1.258661 -1.02044,-1.511204 -1.138055,-0.45536 -2.315376,0.345061 -2.315376,1.574147 0,0.966162 0.74177,1.730363 1.679573,1.730363 0.217467,0 0.570964,-0.0933 0.785548,-0.207327 z m 29.536304,-6.556312 c 0.166301,-0.08652 0.428329,-0.292133 0.582289,-0.456907 0.243331,-0.260418 0.27993,-0.401938 0.27993,-1.082404 0,-0.775551 -0.0044,-0.786896 -0.471542,-1.222665 -0.425747,-0.397132 -0.529059,-0.43981 -1.063729,-0.439432 -1.047973,7.61e-4 -1.767053,0.684049 -1.767053,1.679154 0,1.241874 1.354692,2.086995 2.440105,1.522254 z"
       id="path1" /></g></svg>
